<svg width="417" height="62" viewBox="0 0 417 62" fill="none" xmlns="http://www.w3.org/2000/svg">
<path d="M16.776 15.32V13.32H14.776V15.32H16.776ZM16.776 25.544H14.776V27.544H16.776V25.544ZM33.264 25.544H35.264V23.544H33.264V25.544ZM33.264 35.048V37.048H35.264V35.048H33.264ZM16.776 35.048V33.048H14.776V35.048H16.776ZM16.776 46.136H14.776V48.136H16.776V46.136ZM35.424 46.136H37.424V44.136H35.424V46.136ZM35.424 56V58H37.424V56H35.424ZM4.464 56H2.464V58H4.464V56ZM4.464 5.456V3.456H2.464V5.456H4.464ZM35.424 5.456H37.424V3.456H35.424V5.456ZM35.424 15.32V17.32H37.424V15.32H35.424ZM14.776 15.32V25.544H18.776V15.32H14.776ZM16.776 27.544H33.264V23.544H16.776V27.544ZM31.264 25.544V35.048H35.264V25.544H31.264ZM33.264 33.048H16.776V37.048H33.264V33.048ZM14.776 35.048V46.136H18.776V35.048H14.776ZM16.776 48.136H35.424V44.136H16.776V48.136ZM33.424 46.136V56H37.424V46.136H33.424ZM35.424 54H4.464V58H35.424V54ZM6.464 56V5.456H2.464V56H6.464ZM4.464 7.456H35.424V3.456H4.464V7.456ZM33.424 5.456V15.32H37.424V5.456H33.424ZM35.424 13.32H16.776V17.32H35.424V13.32ZM55.7291 46.496H53.7291V48.496H55.7291V46.496ZM71.8571 46.496H73.8571V44.496H71.8571V46.496ZM71.8571 56V58H73.8571V56H71.8571ZM43.4171 56H41.4171V58H43.4171V56ZM43.4171 5.456V3.456H41.4171V5.456H43.4171ZM55.7291 5.456H57.7291V3.456H55.7291V5.456ZM55.7291 48.496H71.8571V44.496H55.7291V48.496ZM69.8571 46.496V56H73.8571V46.496H69.8571ZM71.8571 54H43.4171V58H71.8571V54ZM45.4171 56V5.456H41.4171V56H45.4171ZM43.4171 7.456H55.7291V3.456H43.4171V7.456ZM53.7291 5.456V46.496H57.7291V5.456H53.7291ZM90.0416 15.32V13.32H88.0416V15.32H90.0416ZM90.0416 25.544H88.0416V27.544H90.0416V25.544ZM106.53 25.544H108.53V23.544H106.53V25.544ZM106.53 35.048V37.048H108.53V35.048H106.53ZM90.0416 35.048V33.048H88.0416V35.048H90.0416ZM90.0416 46.136H88.0416V48.136H90.0416V46.136ZM108.69 46.136H110.69V44.136H108.69V46.136ZM108.69 56V58H110.69V56H108.69ZM77.7296 56H75.7296V58H77.7296V56ZM77.7296 5.456V3.456H75.7296V5.456H77.7296ZM108.69 5.456H110.69V3.456H108.69V5.456ZM108.69 15.32V17.32H110.69V15.32H108.69ZM88.0416 15.32V25.544H92.0416V15.32H88.0416ZM90.0416 27.544H106.53V23.544H90.0416V27.544ZM104.53 25.544V35.048H108.53V25.544H104.53ZM106.53 33.048H90.0416V37.048H106.53V33.048ZM88.0416 35.048V46.136H92.0416V35.048H88.0416ZM90.0416 48.136H108.69V44.136H90.0416V48.136ZM106.69 46.136V56H110.69V46.136H106.69ZM108.69 54H77.7296V58H108.69V54ZM79.7296 56V5.456H75.7296V56H79.7296ZM77.7296 7.456H108.69V3.456H77.7296V7.456ZM106.69 5.456V15.32H110.69V5.456H106.69ZM108.69 13.32H90.0416V17.32H108.69V13.32Z" fill="#8F60F6"/>
<path d="M174.704 5.456V56H162.392V25.688L151.088 56H141.152L129.776 25.616V56H117.464V5.456H132.008L146.192 40.448L160.232 5.456H174.704ZM195.87 15.32V25.544H212.358V35.048H195.87V46.136H214.518V56H183.558V5.456H214.518V15.32H195.87ZM267.727 56H255.415L234.823 24.824V56H222.511V5.456H234.823L255.415 36.776V5.456H267.727V56ZM313.012 5.456V15.32H299.62V56H287.308V15.32H273.916V5.456H313.012ZM343.095 56.504C338.343 56.504 333.975 55.4 329.991 53.192C326.055 50.984 322.911 47.912 320.559 43.976C318.255 39.992 317.103 35.528 317.103 30.584C317.103 25.64 318.255 21.2 320.559 17.264C322.911 13.328 326.055 10.256 329.991 8.048C333.975 5.84 338.343 4.736 343.095 4.736C347.847 4.736 352.191 5.84 356.127 8.048C360.111 10.256 363.231 13.328 365.487 17.264C367.791 21.2 368.943 25.64 368.943 30.584C368.943 35.528 367.791 39.992 365.487 43.976C363.183 47.912 360.063 50.984 356.127 53.192C352.191 55.4 347.847 56.504 343.095 56.504ZM343.095 45.272C347.127 45.272 350.343 43.928 352.743 41.24C355.191 38.552 356.415 35 356.415 30.584C356.415 26.12 355.191 22.568 352.743 19.928C350.343 17.24 347.127 15.896 343.095 15.896C339.015 15.896 335.751 17.216 333.303 19.856C330.903 22.496 329.703 26.072 329.703 30.584C329.703 35.048 330.903 38.624 333.303 41.312C335.751 43.952 339.015 45.272 343.095 45.272ZM394.08 56.504C390.384 56.504 387.072 55.904 384.144 54.704C381.216 53.504 378.864 51.728 377.088 49.376C375.36 47.024 374.448 44.192 374.352 40.88H387.456C387.648 42.752 388.296 44.192 389.4 45.2C390.504 46.16 391.944 46.64 393.72 46.64C395.544 46.64 396.984 46.232 398.04 45.416C399.096 44.552 399.624 43.376 399.624 41.888C399.624 40.64 399.192 39.608 398.328 38.792C397.512 37.976 396.48 37.304 395.232 36.776C394.032 36.248 392.304 35.648 390.048 34.976C386.784 33.968 384.12 32.96 382.056 31.952C379.992 30.944 378.216 29.456 376.728 27.488C375.24 25.52 374.496 22.952 374.496 19.784C374.496 15.08 376.2 11.408 379.608 8.768C383.016 6.08 387.456 4.736 392.928 4.736C398.496 4.736 402.984 6.08 406.392 8.768C409.8 11.408 411.624 15.104 411.864 19.856H398.544C398.448 18.224 397.848 16.952 396.744 16.04C395.64 15.08 394.224 14.6 392.496 14.6C391.008 14.6 389.808 15.008 388.896 15.824C387.984 16.592 387.528 17.72 387.528 19.208C387.528 20.84 388.296 22.112 389.832 23.024C391.368 23.936 393.768 24.92 397.032 25.976C400.296 27.08 402.936 28.136 404.952 29.144C407.016 30.152 408.792 31.616 410.28 33.536C411.768 35.456 412.512 37.928 412.512 40.952C412.512 43.832 411.768 46.448 410.28 48.8C408.84 51.152 406.728 53.024 403.944 54.416C401.16 55.808 397.872 56.504 394.08 56.504Z" fill="#8F60F6"/>
<path d="M174.704 5.456H176.704V3.456H174.704V5.456ZM174.704 56V58H176.704V56H174.704ZM162.392 56H160.392V58H162.392V56ZM162.392 25.688H164.392L160.518 24.9892L162.392 25.688ZM151.088 56V58H152.477L152.962 56.6988L151.088 56ZM141.152 56L139.279 56.7013L139.765 58H141.152V56ZM129.776 25.616L131.649 24.9147L127.776 25.616H129.776ZM129.776 56V58H131.776V56H129.776ZM117.464 56H115.464V58H117.464V56ZM117.464 5.456V3.456H115.464V5.456H117.464ZM132.008 5.456L133.862 4.70468L133.355 3.456H132.008V5.456ZM146.192 40.448L144.338 41.1993L146.201 45.7953L148.048 41.1928L146.192 40.448ZM160.232 5.456V3.456H158.879L158.376 4.71124L160.232 5.456ZM172.704 5.456V56H176.704V5.456H172.704ZM174.704 54H162.392V58H174.704V54ZM164.392 56V25.688H160.392V56H164.392ZM160.518 24.9892L149.214 55.3012L152.962 56.6988L164.266 26.3868L160.518 24.9892ZM151.088 54H141.152V58H151.088V54ZM143.025 55.2987L131.649 24.9147L127.903 26.3173L139.279 56.7013L143.025 55.2987ZM127.776 25.616V56H131.776V25.616H127.776ZM129.776 54H117.464V58H129.776V54ZM119.464 56V5.456H115.464V56H119.464ZM117.464 7.456H132.008V3.456H117.464V7.456ZM130.154 6.20732L144.338 41.1993L148.046 39.6967L133.862 4.70468L130.154 6.20732ZM148.048 41.1928L162.088 6.20075L158.376 4.71124L144.336 39.7032L148.048 41.1928ZM160.232 7.456H174.704V3.456H160.232V7.456ZM195.87 15.32V13.32H193.87V15.32H195.87ZM195.87 25.544H193.87V27.544H195.87V25.544ZM212.358 25.544H214.358V23.544H212.358V25.544ZM212.358 35.048V37.048H214.358V35.048H212.358ZM195.87 35.048V33.048H193.87V35.048H195.87ZM195.87 46.136H193.87V48.136H195.87V46.136ZM214.518 46.136H216.518V44.136H214.518V46.136ZM214.518 56V58H216.518V56H214.518ZM183.558 56H181.558V58H183.558V56ZM183.558 5.456V3.456H181.558V5.456H183.558ZM214.518 5.456H216.518V3.456H214.518V5.456ZM214.518 15.32V17.32H216.518V15.32H214.518ZM193.87 15.32V25.544H197.87V15.32H193.87ZM195.87 27.544H212.358V23.544H195.87V27.544ZM210.358 25.544V35.048H214.358V25.544H210.358ZM212.358 33.048H195.87V37.048H212.358V33.048ZM193.87 35.048V46.136H197.87V35.048H193.87ZM195.87 48.136H214.518V44.136H195.87V48.136ZM212.518 46.136V56H216.518V46.136H212.518ZM214.518 54H183.558V58H214.518V54ZM185.558 56V5.456H181.558V56H185.558ZM183.558 7.456H214.518V3.456H183.558V7.456ZM212.518 5.456V15.32H216.518V5.456H212.518ZM214.518 13.32H195.87V17.32H214.518V13.32ZM267.727 56V58H269.727V56H267.727ZM255.415 56L253.746 57.1023L254.339 58H255.415V56ZM234.823 24.824L236.492 23.7217L232.823 18.1672V24.824H234.823ZM234.823 56V58H236.823V56H234.823ZM222.511 56H220.511V58H222.511V56ZM222.511 5.456V3.456H220.511V5.456H222.511ZM234.823 5.456L236.494 4.35726L235.901 3.456H234.823V5.456ZM255.415 36.776L253.744 37.8747L257.415 43.4585V36.776H255.415ZM255.415 5.456V3.456H253.415V5.456H255.415ZM267.727 5.456H269.727V3.456H267.727V5.456ZM267.727 54H255.415V58H267.727V54ZM257.084 54.8977L236.492 23.7217L233.154 25.9263L253.746 57.1023L257.084 54.8977ZM232.823 24.824V56H236.823V24.824H232.823ZM234.823 54H222.511V58H234.823V54ZM224.511 56V5.456H220.511V56H224.511ZM222.511 7.456H234.823V3.456H222.511V7.456ZM233.152 6.55474L253.744 37.8747L257.086 35.6773L236.494 4.35726L233.152 6.55474ZM257.415 36.776V5.456H253.415V36.776H257.415ZM255.415 7.456H267.727V3.456H255.415V7.456ZM265.727 5.456V56H269.727V5.456H265.727ZM313.012 5.456H315.012V3.456H313.012V5.456ZM313.012 15.32V17.32H315.012V15.32H313.012ZM299.62 15.32V13.32H297.62V15.32H299.62ZM299.62 56V58H301.62V56H299.62ZM287.308 56H285.308V58H287.308V56ZM287.308 15.32H289.308V13.32H287.308V15.32ZM273.916 15.32H271.916V17.32H273.916V15.32ZM273.916 5.456V3.456H271.916V5.456H273.916ZM311.012 5.456V15.32H315.012V5.456H311.012ZM313.012 13.32H299.62V17.32H313.012V13.32ZM297.62 15.32V56H301.62V15.32H297.62ZM299.62 54H287.308V58H299.62V54ZM289.308 56V15.32H285.308V56H289.308ZM287.308 13.32H273.916V17.32H287.308V13.32ZM275.916 15.32V5.456H271.916V15.32H275.916ZM273.916 7.456H313.012V3.456H273.916V7.456ZM329.991 53.192L329.012 54.9363L329.021 54.9413L329.991 53.192ZM320.559 43.976L318.827 44.9772L318.834 44.9896L318.842 45.0019L320.559 43.976ZM320.559 17.264L318.842 16.2381L318.837 16.2458L318.833 16.2536L320.559 17.264ZM329.991 8.048L329.021 6.29867L329.012 6.30371L329.991 8.048ZM356.127 8.048L355.148 9.79231L355.157 9.79731L356.127 8.048ZM365.487 17.264L363.751 18.2586L363.756 18.2665L363.761 18.2744L365.487 17.264ZM365.487 43.976L367.213 44.9864L367.218 44.9772L365.487 43.976ZM356.127 53.192L357.105 54.9363L357.105 54.9363L356.127 53.192ZM352.743 41.24L351.264 39.8933L351.257 39.9006L351.251 39.908L352.743 41.24ZM352.743 19.928L351.251 21.26L351.263 21.2741L351.276 21.2879L352.743 19.928ZM333.303 19.856L331.836 18.4961L331.829 18.5034L331.823 18.5107L333.303 19.856ZM333.303 41.312L331.811 42.644L331.823 42.6581L331.836 42.6719L333.303 41.312ZM343.095 54.504C338.667 54.504 334.634 53.479 330.96 51.4427L329.021 54.9413C333.315 57.321 338.019 58.504 343.095 58.504V54.504ZM330.969 51.4477C327.343 49.4134 324.451 46.5913 322.275 42.9501L318.842 45.0019C321.37 49.2327 324.766 52.5546 329.012 54.9363L330.969 51.4477ZM322.29 42.9747C320.175 39.3176 319.103 35.2034 319.103 30.584H315.103C315.103 35.8526 316.334 40.6664 318.827 44.9772L322.29 42.9747ZM319.103 30.584C319.103 25.9643 320.175 21.8783 322.285 18.2744L318.833 16.2536C316.334 20.5217 315.103 25.3157 315.103 30.584H319.103ZM322.275 18.2899C324.451 14.6487 327.343 11.8266 330.969 9.79229L329.012 6.30371C324.766 8.68544 321.37 12.0073 318.842 16.2381L322.275 18.2899ZM330.96 9.79731C334.634 7.76096 338.667 6.736 343.095 6.736V2.736C338.019 2.736 333.315 3.91903 329.021 6.29869L330.96 9.79731ZM343.095 6.736C347.523 6.736 351.527 7.76092 355.148 9.79229L357.105 6.30371C352.854 3.91908 348.17 2.736 343.095 2.736V6.736ZM355.157 9.79731C358.823 11.8291 361.678 14.6407 363.751 18.2586L367.222 16.2694C364.783 12.0153 361.398 8.68292 357.096 6.29869L355.157 9.79731ZM363.761 18.2744C365.87 21.8783 366.943 25.9643 366.943 30.584H370.943C370.943 25.3157 369.711 20.5217 367.213 16.2536L363.761 18.2744ZM366.943 30.584C366.943 35.2034 365.87 39.3176 363.755 42.9747L367.218 44.9772C369.711 40.6664 370.943 35.8526 370.943 30.584H366.943ZM363.761 42.9656C361.634 46.5983 358.771 49.4155 355.148 51.4477L357.105 54.9363C361.354 52.5525 364.731 49.2257 367.213 44.9864L363.761 42.9656ZM355.148 51.4477C351.527 53.4791 347.523 54.504 343.095 54.504V58.504C348.17 58.504 352.854 57.3209 357.105 54.9363L355.148 51.4477ZM343.095 47.272C347.621 47.272 351.407 45.7382 354.234 42.572L351.251 39.908C349.278 42.1178 346.632 43.272 343.095 43.272V47.272ZM354.221 42.5867C357.073 39.4549 358.415 35.3857 358.415 30.584H354.415C354.415 34.6143 353.308 37.6491 351.264 39.8933L354.221 42.5867ZM358.415 30.584C358.415 25.7423 357.077 21.6614 354.209 18.5681L351.276 21.2879C353.304 23.4746 354.415 26.4977 354.415 30.584H358.415ZM354.234 18.596C351.407 15.4298 347.621 13.896 343.095 13.896V17.896C346.632 17.896 349.278 19.0502 351.251 21.26L354.234 18.596ZM343.095 13.896C338.54 13.896 334.715 15.3916 331.836 18.4961L334.769 21.2159C336.786 19.0404 339.489 17.896 343.095 17.896V13.896ZM331.823 18.5107C329.006 21.6087 327.703 25.711 327.703 30.584H331.703C331.703 26.433 332.799 23.3833 334.782 21.2013L331.823 18.5107ZM327.703 30.584C327.703 35.4171 329.01 39.5076 331.811 42.644L334.794 39.98C332.795 37.7404 331.703 34.6789 331.703 30.584H327.703ZM331.836 42.6719C334.715 45.7764 338.54 47.272 343.095 47.272V43.272C339.489 43.272 336.786 42.1276 334.769 39.9521L331.836 42.6719ZM384.144 54.704L383.386 56.5546L383.386 56.5546L384.144 54.704ZM377.088 49.376L375.476 50.5602L375.484 50.5707L375.492 50.5812L377.088 49.376ZM374.352 40.88V38.88H372.293L372.353 40.9379L374.352 40.88ZM387.456 40.88L389.446 40.6759L389.261 38.88H387.456V40.88ZM389.4 45.2L388.052 46.677L388.069 46.6933L388.088 46.7092L389.4 45.2ZM398.04 45.416L399.263 46.9986L399.285 46.9815L399.307 46.9639L398.04 45.416ZM398.328 38.792L396.914 40.2062L396.934 40.2264L396.955 40.246L398.328 38.792ZM395.232 36.776L394.427 38.6066L394.44 38.6124L394.453 38.6179L395.232 36.776ZM390.048 34.976L389.458 36.8869L389.468 36.8899L389.477 36.8928L390.048 34.976ZM376.728 27.488L378.323 26.2818L378.323 26.2818L376.728 27.488ZM379.608 8.768L380.833 10.3491L380.84 10.3437L380.847 10.3383L379.608 8.768ZM406.392 8.768L405.154 10.3383L405.16 10.3437L405.167 10.3491L406.392 8.768ZM411.864 19.856V21.856H413.968L413.862 19.7551L411.864 19.856ZM398.544 19.856L396.548 19.9734L396.658 21.856H398.544V19.856ZM396.744 16.04L395.432 17.5492L395.451 17.5658L395.47 17.5819L396.744 16.04ZM388.896 15.824L390.184 17.3538L390.207 17.3345L390.23 17.3145L388.896 15.824ZM389.832 23.024L390.853 21.3043L390.853 21.3043L389.832 23.024ZM397.032 25.976L397.673 24.0814L397.66 24.0772L397.648 24.0731L397.032 25.976ZM404.952 29.144L404.058 30.9329L404.066 30.937L404.074 30.9411L404.952 29.144ZM410.28 33.536L408.699 34.7611L408.699 34.7611L410.28 33.536ZM410.28 48.8L408.59 47.7307L408.582 47.7431L408.574 47.7557L410.28 48.8ZM403.944 54.416L403.05 52.6271L403.05 52.6271L403.944 54.416ZM394.08 54.504C390.601 54.504 387.553 53.9396 384.903 52.8534L383.386 56.5546C386.591 57.8684 390.167 58.504 394.08 58.504V54.504ZM384.903 52.8534C382.281 51.7791 380.228 50.2153 378.684 48.1708L375.492 50.5812C377.5 53.2407 380.151 55.2289 383.386 56.5546L384.903 52.8534ZM378.7 48.1918C377.244 46.2103 376.437 43.7849 376.351 40.8221L372.353 40.9379C372.459 44.5991 373.476 47.8377 375.476 50.5602L378.7 48.1918ZM374.352 42.88H387.456V38.88H374.352V42.88ZM385.467 41.0841C385.695 43.3137 386.498 45.2586 388.052 46.677L390.749 43.723C390.094 43.1254 389.601 42.1903 389.446 40.6759L385.467 41.0841ZM388.088 46.7092C389.63 48.0499 391.57 48.64 393.72 48.64V44.64C392.319 44.64 391.379 44.2701 390.712 43.6908L388.088 46.7092ZM393.72 48.64C395.826 48.64 397.748 48.1692 399.263 46.9986L396.817 43.8334C396.22 44.2948 395.262 44.64 393.72 44.64V48.64ZM399.307 46.9639C400.873 45.6825 401.624 43.914 401.624 41.888H397.624C397.624 42.838 397.32 43.4215 396.774 43.8681L399.307 46.9639ZM401.624 41.888C401.624 40.1207 400.987 38.5526 399.701 37.338L396.955 40.246C397.397 40.6634 397.624 41.1593 397.624 41.888H401.624ZM399.742 37.3778C398.715 36.3508 397.456 35.5452 396.011 34.9341L394.453 38.6179C395.504 39.0628 396.309 39.6012 396.914 40.2062L399.742 37.3778ZM396.038 34.9454C394.724 34.3674 392.903 33.7395 390.619 33.0592L389.477 36.8928C391.705 37.5565 393.34 38.1286 394.427 38.6066L396.038 34.9454ZM390.638 33.065C387.43 32.0743 384.872 31.1015 382.934 30.1549L381.178 33.7491C383.368 34.8185 386.138 35.8616 389.458 36.8869L390.638 33.065ZM382.934 30.1549C381.173 29.2948 379.636 28.0182 378.323 26.2818L375.133 28.6942C376.796 30.8938 378.811 32.5932 381.178 33.7491L382.934 30.1549ZM378.323 26.2818C377.164 24.7488 376.496 22.6411 376.496 19.784H372.496C372.496 23.2629 373.316 26.2912 375.133 28.6942L378.323 26.2818ZM376.496 19.784C376.496 15.6337 377.963 12.5723 380.833 10.3491L378.383 7.1869C374.437 10.2437 372.496 14.5263 372.496 19.784H376.496ZM380.847 10.3383C383.818 7.99448 387.786 6.736 392.928 6.736V2.736C387.126 2.736 382.214 4.16552 378.37 7.19767L380.847 10.3383ZM392.928 6.736C398.175 6.736 402.188 7.99905 405.154 10.3383L407.631 7.19767C403.781 4.16095 398.817 2.736 392.928 2.736V6.736ZM405.167 10.3491C408.063 12.5923 409.653 15.7193 409.867 19.9569L413.862 19.7551C413.596 14.4887 411.537 10.2237 407.617 7.1869L405.167 10.3491ZM411.864 17.856H398.544V21.856H411.864V17.856ZM400.541 19.7386C400.417 17.6383 399.613 15.8155 398.018 14.4981L395.47 17.5819C396.084 18.0885 396.479 18.8097 396.548 19.9734L400.541 19.7386ZM398.056 14.5308C396.525 13.1987 394.614 12.6 392.496 12.6V16.6C393.834 16.6 394.756 16.9613 395.432 17.5492L398.056 14.5308ZM392.496 12.6C390.627 12.6 388.917 13.122 387.563 14.3335L390.23 17.3145C390.7 16.894 391.389 16.6 392.496 16.6V12.6ZM387.608 14.2942C386.136 15.5339 385.528 17.2891 385.528 19.208H389.528C389.528 18.1509 389.833 17.6501 390.184 17.3538L387.608 14.2942ZM385.528 19.208C385.528 21.6229 386.737 23.5125 388.811 24.7437L390.853 21.3043C389.855 20.7115 389.528 20.0571 389.528 19.208H385.528ZM388.811 24.7437C390.543 25.7723 393.115 26.8108 396.416 27.8789L397.648 24.0731C394.421 23.0292 392.193 22.0997 390.853 21.3043L388.811 24.7437ZM396.391 27.8706C399.609 28.9588 402.155 29.9813 404.058 30.9329L405.847 27.3551C403.718 26.2907 400.984 25.2012 397.673 24.0814L396.391 27.8706ZM404.074 30.9411C405.848 31.8071 407.388 33.0688 408.699 34.7611L411.861 32.3109C410.196 30.1632 408.185 28.4969 405.83 27.3469L404.074 30.9411ZM408.699 34.7611C409.855 36.252 410.512 38.2607 410.512 40.952H414.512C414.512 37.5953 413.682 34.66 411.861 32.3109L408.699 34.7611ZM410.512 40.952C410.512 43.4673 409.868 45.7102 408.59 47.7307L411.97 49.8693C413.668 47.1858 414.512 44.1967 414.512 40.952H410.512ZM408.574 47.7557C407.354 49.7488 405.543 51.3804 403.05 52.6271L404.839 56.2049C407.913 54.6676 410.326 52.5552 411.986 49.8443L408.574 47.7557ZM403.05 52.6271C400.598 53.8532 397.628 54.504 394.08 54.504V58.504C398.116 58.504 401.723 57.7628 404.839 56.2049L403.05 52.6271Z" fill="#8F60F6"/>
</svg>
